<?xml version="1.0" encoding="UTF-8" standalone="no"?>
<!-- Created with Inkscape (http://www.inkscape.org/) -->

<svg
   xmlns:dc="http://purl.org/dc/elements/1.1/"
   xmlns:cc="http://creativecommons.org/ns#"
   xmlns:rdf="http://www.w3.org/1999/02/22-rdf-syntax-ns#"
   xmlns:svg="http://www.w3.org/2000/svg"
   xmlns="http://www.w3.org/2000/svg"
   xmlns:xlink="http://www.w3.org/1999/xlink"
   xmlns:sodipodi="http://sodipodi.sourceforge.net/DTD/sodipodi-0.dtd"
   xmlns:inkscape="http://www.inkscape.org/namespaces/inkscape"
   width="578"
   height="166"
   id="svg2"
   version="1.1"
   inkscape:version="0.48.4 r9939"
   sodipodi:docname="New document 1">
  <defs
     id="defs4">
    <linearGradient
       id="linearGradient3919">
      <stop
         style="stop-color:#6b6b6c;stop-opacity:1;"
         offset="0"
         id="stop3921" />
      <stop
         style="stop-color:#1b1b1c;stop-opacity:1;"
         offset="1"
         id="stop3923" />
    </linearGradient>
    <linearGradient
       id="linearGradient3911">
      <stop
         style="stop-color:#297cae;stop-opacity:1;"
         offset="0"
         id="stop3913" />
      <stop
         style="stop-color:#09538b;stop-opacity:1;"
         offset="1"
         id="stop3915" />
    </linearGradient>
    <linearGradient
       inkscape:collect="always"
       xlink:href="#linearGradient3911"
       id="linearGradient3917"
       x1="102.49419"
       y1="49.956413"
       x2="48.174618"
       y2="104.27599"
       gradientUnits="userSpaceOnUse" />
    <linearGradient
       inkscape:collect="always"
       xlink:href="#linearGradient3919"
       id="linearGradient3925"
       x1="38.13393"
       y1="135.3148"
       x2="63.418747"
       y2="91.520218"
       gradientUnits="userSpaceOnUse" />
  </defs>
  <sodipodi:namedview
     id="base"
     pagecolor="#ff8082"
     bordercolor="#666666"
     borderopacity="1.0"
     inkscape:pageopacity="0.52941176"
     inkscape:pageshadow="2"
     inkscape:zoom="3.959798"
     inkscape:cx="78.888534"
     inkscape:cy="85.171261"
     inkscape:document-units="px"
     inkscape:current-layer="layer2"
     showgrid="false"
     fit-margin-top="0"
     fit-margin-left="0"
     fit-margin-right="0"
     fit-margin-bottom="0"
     inkscape:showpageshadow="false"
     borderlayer="true"
     inkscape:window-width="1680"
     inkscape:window-height="1004"
     inkscape:window-x="0"
     inkscape:window-y="23"
     inkscape:window-maximized="1" />
  <metadata
     id="metadata7">
    <rdf:RDF>
      <cc:Work
         rdf:about="">
        <dc:format>image/svg+xml</dc:format>
        <dc:type
           rdf:resource="http://purl.org/dc/dcmitype/StillImage" />
        <dc:title></dc:title>
      </cc:Work>
    </rdf:RDF>
  </metadata>
  <g
     inkscape:label="image"
     inkscape:groupmode="layer"
     id="layer1"
     transform="translate(-56.714294,-423.64789)"
     sodipodi:insensitive="true"
     style="display:none">
    <image
       y="423.64789"
       x="56.714294"
       id="image3815"
       xlink:href="file:///home/c/Downloads/grsec-logo.png"
       height="166"
       width="578" />
  </g>
  <g
     inkscape:groupmode="layer"
     id="layer2"
     inkscape:label="lines"
     style="display:inline">
    <path
       style="fill:url(#linearGradient3917);fill-opacity:1;stroke:none"
       d="m 166.0625,10.6875 c -3.12376,0 -5.67484,2.390828 -5.96875,5.4375 L 94.53125,53.96875 79.40625,45.25 c -2.391534,-1.380753 -5.372957,-1.606935 -8.15625,0 L 44.78125,60.5625 c -1.933383,1.116239 -3.5,2.945145 -3.5,6.03125 l 0,31.5625 c 0,3.24799 1.366307,4.52424 3.21875,5.59375 l 26.375,15.21875 c 2.840488,1.63996 5.731797,2.42816 9.9375,0 l 25.375,-14.65625 c 2.30114,-1.32857 3.21875,-3.54915 3.21875,-5.59375 l 0,-11.90625 -28.59375,16.5 c 0.102024,0.31228 0.15625,0.65364 0.15625,1 0,1.76287 -1.424627,3.1875 -3.1875,3.1875 -1.762873,0 -3.21875,-1.42463 -3.21875,-3.1875 0,-1.76287 1.455877,-3.1875 3.21875,-3.1875 0.976191,0 1.820745,0.43455 2.40625,1.125 l 19.90625,-11.46875 0,-5.21875 -13.5,7.78125 c 0.142226,0.386749 0.21875,0.782658 0.21875,1.21875 0,1.985458 -1.608292,3.59375 -3.59375,3.59375 -1.985458,0 -3.59375,-1.608292 -3.59375,-3.59375 0,-1.985458 1.608292,-3.59375 3.59375,-3.59375 0.663192,0 1.279168,0.186815 1.8125,0.5 l 8,-4.625 0,-5.65625 L 64.8125,97.46875 C 64.918922,97.858919 65,98.263595 65,98.6875 c 0,2.56418 -2.092071,4.625 -4.65625,4.625 -2.564179,0 -4.625,-2.06082 -4.625,-4.625 0,-2.564179 2.060821,-4.65625 4.625,-4.65625 0.641045,0 1.257036,0.140059 1.8125,0.375 l 95.90625,-55.375 c 0.37224,0.157443 0.78916,0.25 1.21875,0.25 1.71836,0 3.125,-1.375394 3.125,-3.09375 0,-1.718356 -1.40664,-3.125 -3.125,-3.125 -1.45849,0 -2.66311,1.020762 -3,2.375 l -35.09375,20.25 0,-3.71875 25.1875,-14.5625 c 0.40089,0.337271 0.90385,0.53125 1.46875,0.53125 1.27319,0 2.3125,-1.008064 2.3125,-2.28125 0,-1.273186 -1.03931,-2.3125 -2.3125,-2.3125 -1.27319,0 -2.28125,1.039314 -2.28125,2.3125 L 129.34375,45 l 0,-3.25 34.03125,-19.65625 c 0.81151,0.40821 1.71715,0.625 2.6875,0.625 3.32097,0 6.03125,-2.679032 6.03125,-6 0,-3.320968 -2.71028,-6.03125 -6.03125,-6.03125 z"
       id="path3819"
       inkscape:connector-curvature="0"
       sodipodi:nodetypes="scccccssccccsccssssccccssssccccssssccsssccccsssccccsss" />
    <path
       style="fill:url(#linearGradient3925);fill-opacity:1;stroke:none"
       d="M 74.6875,8.78125 C 72.734667,8.9195901 70.762638,9.5880026 68.75,10.75 l -52.84375,30.5 c -3.217617,1.857692 -5.84375,5.314627 -5.84375,10.09375 l 0,60.90625 c 0,3.99014 0.0689,8.16728 2.59375,9.625 l 56.625,32.6875 c 4.039446,2.33217 8.433495,2.87102 13.40625,0 l 52.15625,-30.125 c 4.51216,-2.6051 6.3125,-6.11942 6.3125,-10.90625 l 0,-48.25 L 176.125,45.0625 c 0.73655,0.285246 1.50648,0.46875 2.34375,0.46875 3.63259,0 6.59375,-2.961163 6.59375,-6.59375 0,-3.632587 -2.96116,-6.5625 -6.59375,-6.5625 -3.22241,0 -5.90434,2.315908 -6.46875,5.375 l -45.75,26.4375 0,42.875 c 0,2.90259 -0.98417,5.73818 -4.46875,7.75 l -41.0625,23.71875 c -3.596609,2.0765 -6.709457,1.79154 -9.8125,0 L 29.1875,114.4375 c -2.740757,-1.58238 -4.25,-4.18089 -4.25,-7.34375 l 0,-48.78125 c 0,-3.192062 1.627104,-5.696047 4.15625,-7.15625 l 41.75,-24.125 c 2.474829,-1.428843 6.299179,-1.23456 8.4375,0 L 105.625,42.25 140.03125,22.375 c 0.55636,0.169929 1.13802,0.25 1.75,0.25 3.32097,0 6.03125,-2.679032 6.03125,-6 0,-3.320968 -2.71028,-6 -6.03125,-6 -2.93782,0 -5.34976,2.089824 -5.875,4.875 L 113.1875,28.625 82.21875,10.75 C 79.682229,9.285539 77.198285,8.6033842 74.6875,8.78125 z"
       id="path3819-9"
       inkscape:connector-curvature="0" />
  </g>
</svg>
