<svg id="Layer_1" data-name="Layer 1" xmlns="http://www.w3.org/2000/svg" viewBox="0 0 57.87 49.97"><defs><style>.cls-1{fill:none;stroke:#fff;stroke-linecap:round;stroke-linejoin:round;stroke-width:2.13px;}.cls-2{fill:#fff;}</style></defs><title>grsecurity-icon</title><line class="cls-1" x1="40.09" y1="21.74" x2="55.38" y2="12.9"/><path class="cls-2" d="M30.05,19.29a1,1,0,0,1-.48-1.8L51.85,4.65A1,1,0,1,1,53,6.22l-.18.1L30.52,19.16A1,1,0,0,1,30.05,19.29Z" transform="translate(-1.82 -0.72)"/><path class="cls-2" d="M31.29,23.48a1,1,0,0,1-.48-1.8L48.68,11.34a1,1,0,0,1,1,1.67L31.78,23.35A1,1,0,0,1,31.29,23.48Z" transform="translate(-1.82 -0.72)"/><polyline class="cls-1" points="42.86 2.51 30.59 9.61 30.59 9.61 20.58 3.84 1.06 15.11 1.06 37.64 20.58 48.91 40.1 37.64 40.1 21.85"/><path class="cls-2" d="M19.65,32.59a2.36,2.36,0,0,1,0,.27,2.42,2.42,0,1,1-1-1.94l15.95-9.24v-.55a1.92,1.92,0,0,0-1-1.67l-10.32-6a1.92,1.92,0,0,0-1.92,0l-10.32,6a1.92,1.92,0,0,0-1,1.67V33a1.92,1.92,0,0,0,1,1.67l10.32,6a1.92,1.92,0,0,0,1.92,0l10.32-6a1.92,1.92,0,0,0,1-1.67V29.34l-10,5.79h0a1.92,1.92,0,1,1-1.92-1.92h0a1.9,1.9,0,0,1,1,.27l6.26-3.64V26.65Z" transform="translate(-1.82 -0.72)"/><path class="cls-2" d="M52.35,7.88a2.4,2.4,0,1,1,2.4-2.4h0A2.41,2.41,0,0,1,52.35,7.88Zm0-2.89a.48.48,0,1,0,.48.48h0A.48.48,0,0,0,52.35,5Z" transform="translate(-1.82 -0.72)"/><circle class="cls-1" cx="55.36" cy="12.9" r="1.45"/><path class="cls-2" d="M49.17,14.1a1.92,1.92,0,1,1,1.92-1.92h0A1.92,1.92,0,0,1,49.17,14.1Zm0-1.92Zm0,0Zm0,0Zm0,0Zm0,0Zm0,0Zm0,0Zm0,0Z" transform="translate(-1.82 -0.72)"/><polygon class="cls-2" points="40.1 16.18 29.89 21.9 29.89 16.35 40.1 11.19 40.1 16.18"/><circle class="cls-1" cx="42.9" cy="2.51" r="1.45"/></svg>