<svg id="screenshot-icon_Image" data-name="screenshot-icon Image" xmlns="http://www.w3.org/2000/svg" viewBox="0 0 58.18 50.24"><defs><style>.cls-1{fill:none;stroke:#00589c;stroke-linecap:round;stroke-linejoin:round;stroke-width:2.14px;}.cls-2{fill:#b0bec5;}</style></defs><title>grsecurity-icon</title><line class="cls-1" x1="40.31" y1="21.86" x2="55.68" y2="12.97"/><path class="cls-2" d="M30,20.66a1,1,0,0,1-.48-1.81L51.95,5.94a1,1,0,0,1,1.14,1.58l-.18.1L30.51,20.53A1,1,0,0,1,30,20.66Z" transform="translate(-1.66 -1.99)"/><path class="cls-2" d="M31.29,24.87a1,1,0,0,1-.48-1.81l18-10.4a1,1,0,0,1,1,1.68l-18,10.4A1,1,0,0,1,31.29,24.87Z" transform="translate(-1.66 -1.99)"/><polyline class="cls-1" points="43.09 2.52 30.75 9.66 30.75 9.66 20.69 3.86 1.07 15.19 1.07 37.84 20.69 49.17 40.32 37.84 40.32 21.96"/><path class="cls-2" d="M19.58,34a2.37,2.37,0,0,1,0,.27,2.44,2.44,0,1,1-1-1.95l16-9.29v-.56a1.93,1.93,0,0,0-1-1.68l-10.38-6a1.93,1.93,0,0,0-1.93,0L11,20.83a1.93,1.93,0,0,0-1,1.68v12a1.93,1.93,0,0,0,1,1.68l10.38,6a1.93,1.93,0,0,0,1.93,0l10.38-6a1.93,1.93,0,0,0,1-1.68V30.76L24.55,36.59h0a1.93,1.93,0,1,1-1.93-1.93h0a1.91,1.91,0,0,1,1,.27l6.3-3.66V28.06Z" transform="translate(-1.66 -1.99)"/><path class="cls-2" d="M52.45,9.19a2.42,2.42,0,1,1,2.42-2.42h0A2.43,2.43,0,0,1,52.45,9.19Zm0-2.91a.48.48,0,1,0,.48.48h0a.48.48,0,0,0-.48-.47Z" transform="translate(-1.66 -1.99)"/><circle class="cls-1" cx="55.65" cy="12.97" r="1.45"/><path class="cls-2" d="M49.25,15.44a1.93,1.93,0,1,1,1.93-1.93h0A1.93,1.93,0,0,1,49.25,15.44Zm0-1.93Zm0,0Zm0,0Zm0,0Zm0,0Zm0,0Zm0,0Zm0,0Z" transform="translate(-1.66 -1.99)"/><polygon class="cls-2" points="40.32 16.27 30.05 22.02 30.05 16.44 40.32 11.24 40.32 16.27"/><circle class="cls-1" cx="43.13" cy="2.52" r="1.45"/></svg>