<svg id="Layer_1" data-name="Layer 1" xmlns="http://www.w3.org/2000/svg" width="226.97" height="60" viewBox="0 0 226.97 60">
  <defs>
    <style>
      .cls-1 {
        fill: #00589c;
      }
    </style>
  </defs>
  <title>grsecurity</title>
  <g>
    <path class="cls-1" d="M386.93,306.65h-5.69a12.13,12.13,0,0,1-1.48-.06,7.41,7.41,0,0,1-1.54-.31,5.27,5.27,0,0,1-1.49-.76,5.1,5.1,0,0,1-1.29-1.38,8.52,8.52,0,0,1-1.11-3A22.32,22.32,0,0,1,374,297a20.87,20.87,0,0,1,.15-2.66,9.4,9.4,0,0,1,.59-2.34,6.85,6.85,0,0,1,1.27-2,6.15,6.15,0,0,1,3-1.82,8.28,8.28,0,0,1,1.5-.25h8.22a4.84,4.84,0,0,1,1.09.21,3.23,3.23,0,0,1,1.06.57,3,3,0,0,1,.81,1,3.78,3.78,0,0,1,.35,1.06,5.81,5.81,0,0,1,.07.92v12.5a20.11,20.11,0,0,1-.11,2.25,9.35,9.35,0,0,1-.46,2.06,5.53,5.53,0,0,1-1,1.77,5.4,5.4,0,0,1-1.59,1.28,8,8,0,0,1-1.78.69,10.58,10.58,0,0,1-1.67.3c-0.43,0-.85.07-1.28,0.07h-8.91v-4h9a5.47,5.47,0,0,0,1.09-.19,2.43,2.43,0,0,0,.9-0.46,2.28,2.28,0,0,0,.56-0.74,3.48,3.48,0,0,0,.18-0.42Zm6.89,0V295a12.25,12.25,0,0,1,.15-2,7.08,7.08,0,0,1,.59-1.91,5.17,5.17,0,0,1,1.28-1.65,5.69,5.69,0,0,1,1.46-.93,7.72,7.72,0,0,1,1.54-.5,10.56,10.56,0,0,1,1.45-.2h4.38v4h-2.15a7.41,7.41,0,0,0-1.06.07,3.69,3.69,0,0,0-1,.31,2.54,2.54,0,0,0-.88.68,3,3,0,0,0-.62,1.37,8.69,8.69,0,0,0-.17,1.81v10.59h-5Zm-6.73-4v-9.93a1.49,1.49,0,0,0-.06-0.47,0.58,0.58,0,0,0-.23-0.26,0.85,0.85,0,0,0-.32-0.14,2.44,2.44,0,0,0-.43,0h-3.36a4.67,4.67,0,0,0-1.6.26,2.61,2.61,0,0,0-1.09.68,2.81,2.81,0,0,0-.52,1,7.2,7.2,0,0,0-.3,1.31,10.87,10.87,0,0,0-.11,1.28c0,0.43,0,.61,0,0.91a16.93,16.93,0,0,0,.17,2.48,6,6,0,0,0,.36,1.38,2.39,2.39,0,0,0,.35.61,2.27,2.27,0,0,0,.82.59,3.78,3.78,0,0,0,1,.25h5.31v0Zm134,3.37-8.15-18.25h5.18l5.39,12.91,5.71-12.84h5.11l-11.08,24.5h-5.16Zm-114.4.63v-4H417.2a2.11,2.11,0,0,0,.54-0.07,0.8,0.8,0,0,0,.39-0.26,0.68,0.68,0,0,0,.18-0.35,4,4,0,0,0-.07-1,0.92,0.92,0,0,0-.27-0.42l-0.17-.12a3.7,3.7,0,0,0-.44-0.19c-0.29-.11-0.6-0.2-0.9-0.29l-1.5-.43-3.43-.94a12.07,12.07,0,0,1-2.5-.94,4.84,4.84,0,0,1-1.68-1.4,4.57,4.57,0,0,1-.6-1.15,5.69,5.69,0,0,1-.27-1.14,7.87,7.87,0,0,1,0-2,5.68,5.68,0,0,1,.27-1.14,4.42,4.42,0,0,1,.6-1.15,3.7,3.7,0,0,1,1.43-1.2,5.27,5.27,0,0,1,1.65-.47,13.63,13.63,0,0,1,1.6-.08h10.55v4h-10a4,4,0,0,0-.61,0,1,1,0,0,0-.46.2,0.7,0.7,0,0,0-.26.34,2.13,2.13,0,0,0-.05.54,2.72,2.72,0,0,0,0,.41,0.76,0.76,0,0,0,.1.28,0.92,0.92,0,0,0,.26.29,2.25,2.25,0,0,0,.4.23,5.32,5.32,0,0,0,.58.24l0.6,0.21,0.47,0.13,3.83,1.08c0.64,0.18,1.29.37,1.92,0.59a9.72,9.72,0,0,1,1.55.66,4.63,4.63,0,0,1,1.2.91,4.13,4.13,0,0,1,.78,1.21,5.22,5.22,0,0,1,.35,1.25,7,7,0,0,1,.08,1.15,7.21,7.21,0,0,1-.26,2,4.88,4.88,0,0,1-.63,1.37,3.72,3.72,0,0,1-.79.86,3.64,3.64,0,0,1-1.11.57,5.55,5.55,0,0,1-1.09.22h-12.9Zm22.45-7.6v0.32a3.61,3.61,0,0,0,.07.86,5.61,5.61,0,0,0,.11.65,2.15,2.15,0,0,0,.46.93,2,2,0,0,0,.69.51,3.42,3.42,0,0,0,.92.24,8.23,8.23,0,0,0,1,.06h9.21v4H431.2a11.48,11.48,0,0,1-1.45-.06,7.35,7.35,0,0,1-1.55-.31,5.42,5.42,0,0,1-2.86-2.1,6.28,6.28,0,0,1-.93-2.07,12.79,12.79,0,0,1-.37-2.32C424,299,424,298.17,424,297.37s0-1.58.06-2.37a13.6,13.6,0,0,1,.28-2.09,6.91,6.91,0,0,1,.68-1.84,5.64,5.64,0,0,1,1.27-1.54,6.16,6.16,0,0,1,1.77-1.06,9.4,9.4,0,0,1,1.91-.53,15.48,15.48,0,0,1,1.81-.18h1.5c0.7,0,1.41,0,2.12.07a11.64,11.64,0,0,1,2.1.33,6.76,6.76,0,0,1,1.94.82,5.24,5.24,0,0,1,1.75,1.75,6.67,6.67,0,0,1,.81,2.16,12.83,12.83,0,0,1,.2,2.3,5.44,5.44,0,0,1-.33,2.06,3.05,3.05,0,0,1-.66,1,2.53,2.53,0,0,1-1.11.67,4.09,4.09,0,0,1-1.16.16h-9.82Zm0-4h7.65a0.51,0.51,0,0,0,.24,0,0.26,0.26,0,0,0,.09-0.14,1.35,1.35,0,0,0,0-.34,2.68,2.68,0,0,0-.14-0.85,2.6,2.6,0,0,0-.35-0.67,2.29,2.29,0,0,0-.45-0.47,3,3,0,0,0-.91-0.46,5,5,0,0,0-1-.21H432a4.13,4.13,0,0,0-1.18.27,2.51,2.51,0,0,0-1,.71,2.22,2.22,0,0,0-.46.76,3.32,3.32,0,0,0-.18.88v0.58ZM460,306.65h-9.08a11,11,0,0,1-1.23-.08,8,8,0,0,1-1.48-.32,6.82,6.82,0,0,1-1.55-.71,6.12,6.12,0,0,1-1.45-1.25,6.27,6.27,0,0,1-1.16-2.07,9.71,9.71,0,0,1-.47-2.29c-0.07-.82-0.09-1.64-0.09-2.46v-1.76a14.19,14.19,0,0,1,.23-2,8.8,8.8,0,0,1,.63-2,6.31,6.31,0,0,1,2-2.51,6.75,6.75,0,0,1,1.18-.68,7.88,7.88,0,0,1,1.65-.52,10.77,10.77,0,0,1,2.2-.21h8.13v4h-6.85a5.18,5.18,0,0,0-2,.36,3.15,3.15,0,0,0-1.22.88,3.29,3.29,0,0,0-.65,1.22,4.92,4.92,0,0,0-.15.77c0,0.32-.07.64-0.09,1s0,0.59,0,.89v1.78a10.07,10.07,0,0,0,.16,1.28,3.85,3.85,0,0,0,.31,1,2.39,2.39,0,0,0,1,1,4,4,0,0,0,1.42.47,11.76,11.76,0,0,0,1.63.1H460v4Zm19.24-3.7v0.83a3.45,3.45,0,0,1-.29,1.06,2.8,2.8,0,0,1-.79,1,2.93,2.93,0,0,1-1,.55,5,5,0,0,1-1.07.2h-7.29a13.38,13.38,0,0,1-1.91-.12,6.49,6.49,0,0,1-1.64-.45,5.5,5.5,0,0,1-1.42-.89,5.16,5.16,0,0,1-1.25-1.6,6.6,6.6,0,0,1-.6-1.91,13.78,13.78,0,0,1-.14-2.12V287.78h4.94v11a12.21,12.21,0,0,0,.05,1.3,4.75,4.75,0,0,0,.19.9,2.49,2.49,0,0,0,.33.62,2,2,0,0,0,.66.58,2.77,2.77,0,0,0,.91.28,8.53,8.53,0,0,0,1.23.07h3.26a1.67,1.67,0,0,0,.52-0.07,0.69,0.69,0,0,0,.26-0.15,0.58,0.58,0,0,0,.16-0.28,2.62,2.62,0,0,0,0-.44V287.78h4.94V302.9Zm2.23,3.7V295a12.65,12.65,0,0,1,.15-2,7.06,7.06,0,0,1,.59-1.91,5.22,5.22,0,0,1,1.27-1.65,5.71,5.71,0,0,1,1.47-.93,7.72,7.72,0,0,1,1.54-.5,10.56,10.56,0,0,1,1.45-.2h4.38v4h-2.15a7.37,7.37,0,0,0-1.06.07,3.69,3.69,0,0,0-1,.31,2.54,2.54,0,0,0-.88.68,3.11,3.11,0,0,0-.63,1.37,8.69,8.69,0,0,0-.16,1.81v10.59h-5Zm12.18,0V287.78h4.94v18.87h-4.94Zm8.64-14.79h-2.45v-4h2.45v-5.8h4.94v5.71h5v4h-5v8a4.56,4.56,0,0,0,.22,1.23,2,2,0,0,0,.62.91,2.27,2.27,0,0,0,.84.43,5.34,5.34,0,0,0,1,.19h2.36v4h-3a13.68,13.68,0,0,1-2.13-.14,6.79,6.79,0,0,1-1.65-.46,5.86,5.86,0,0,1-1.32-.82,5.08,5.08,0,0,1-1.07-1.21,5.36,5.36,0,0,1-.67-1.61,8.9,8.9,0,0,1-.22-2.08v-8.35Z" transform="translate(-307.35 -268.13)"/>
    <ellipse class="cls-1" cx="188.77" cy="15.87" rx="2.46" ry="2.4"/>
    <g>
      <path class="cls-1" d="M337.75,269.65l7.4,4.27v-0.07l4,2.32,9.14-5.29a2.56,2.56,0,1,1,1.47,2.71l-2.18,1.26L352.16,278l-5.93,3.43-2-1.17L336.89,276c-2.9-1.63-3.37-1.57-6.12.08l-7.19,4.15-7.34,4.24c-2.87,1.69-3,2.14-3,5.34v16.78c0,3.33.33,3.7,3.13,5.25l7.19,4.15,7.34,4.24c2.9,1.63,3.37,1.56,6.12-.09l7.19-4.15,7.34-4.24c2.87-1.69,3-2.14,3-5.34V290.65l5.93-3.43,12.58-7.27a2.79,2.79,0,0,1,5.56.38,3.06,3.06,0,0,1-2.79,2.79,2,2,0,0,1-1.22-.26L360.48,291v17.8c0.08,4.12-.15,4.69-3.84,6.87l-9.45,5.46-9.25,5.34c-3.53,2.12-4.14,2.22-7.87.11l-9.45-5.45-9.26-5.34c-3.6-2-4-2.48-4-6.76V287.43c-0.08-4.12.15-4.69,3.84-6.87l9.45-5.46,9.26-5.34C333.4,267.65,334,267.55,337.75,269.65Z" transform="translate(-307.35 -268.13)"/>
      <path class="cls-1" d="M352.27,287.37l14.5-8.37a1.24,1.24,0,1,1,.42,1.1c-12.9,7.7-25.63,15.15-38.64,22.67a2,2,0,1,0,1.23,1.51L341,297.8v1.81l-3.27,1.89a1.59,1.59,0,1,0,.94,1.16l5.1-2.94v1.57l-8,4.6-0.19-.13a1.34,1.34,0,1,0,.64.92l11.39-6.57v3.54c0,2.14-.08,2.43-2,3.56l-4.9,2.83-4.8,2.77c-1.83,1.1-2.15,1.15-4.08.06L327,310l-4.8-2.77c-1.87-1-2.07-1.28-2.09-3.51V292.58c0-2.14.08-2.43,2-3.57l4.9-2.83,4.8-2.77c1.83-1.1,2.15-1.15,4.08-.06l4.9,2.83,1,0.57,26.55-15.39a2.52,2.52,0,0,1,5,0,2.85,2.85,0,0,1-2.52,2.52,1.71,1.71,0,0,1-1.4-.43l-13.72,7.92v1.58l6.62-3.82a0.91,0.91,0,0,1,0-.15,0.85,0.85,0,1,1,.85.85h0a0.83,0.83,0,0,1-.55-0.2l-10.37,6v1.74h0Z" transform="translate(-307.35 -268.13)"/>
    </g>
  </g>
</svg>
