<svg id="Layer_1" data-name="Layer 1" xmlns="http://www.w3.org/2000/svg" width="1228.87" height="152.96" viewBox="0 0 1228.87 152.96">
  <defs>
    <style>
      .cls-1, .cls-2, .cls-3, .cls-4 {
        fill: none;
        stroke-linecap: round;
        stroke-linejoin: round;
        stroke-width: 2px;
      }

      .cls-1, .cls-3 {
        stroke: #00589c;
      }

      .cls-2, .cls-4 {
        stroke: #b0bec5;
      }

      .cls-3, .cls-4 {
        fill-rule: evenodd;
      }

      .cls-5 {
        fill: #b0bec5;
      }

      .cls-6 {
        fill: #00589c;
      }
    </style>
  </defs>
  <title>icons</title>
  <g>
    <g>
      <g>
        <path class="cls-1" d="M242.91,240.36v34.17a5.63,5.63,0,0,1-5.62,5.63H203.44v-45h34.67v37.16" transform="translate(194 -221.18)"/>
        <rect class="cls-2" x="403.06" y="19.6" width="11.25" height="12.7"/>
        <line class="cls-1" x1="419" y1="19.6" x2="426.49" y2="19.6"/>
        <line class="cls-1" x1="419" y1="25.96" x2="426.49" y2="25.96"/>
        <line class="cls-1" x1="419" y1="32.31" x2="426.49" y2="32.31"/>
        <line class="cls-1" x1="403.06" y1="38.66" x2="426.49" y2="38.66"/>
        <line class="cls-1" x1="403.06" y1="45.01" x2="426.49" y2="45.01"/>
        <line class="cls-1" x1="403.06" y1="51.36" x2="426.49" y2="51.36"/>
      </g>
      <g>
        <path class="cls-1" d="M320.26,235.16c-15.1,0-27.35,8.9-27.35,19.87,0,6.13,3.82,11.61,9.83,15.25,0,1.59-.4,6.43-3.91,9.29,0,0,9.8,3.14,15.68-5.12a37.42,37.42,0,0,0,5.75.44c15.1,0,27.35-8.9,27.35-19.87S335.37,235.16,320.26,235.16Z" transform="translate(194 -221.18)"/>
        <path class="cls-2" d="M336.56,274.75c1.06,0.09,2.14.14,3.24,0.14a37.42,37.42,0,0,0,5.75-.44c5.88,8.26,15.68,5.12,15.68,5.12-3.51-2.86-3.89-7.7-3.91-9.29,6-3.64,9.83-9.12,9.83-15.25,0-11-12.24-19.87-27.35-19.87-1.1,0-2.17.05-3.24,0.14" transform="translate(194 -221.18)"/>
      </g>
      <g>
        <path class="cls-1" d="M541.31,235.16c-0.67.25-18.28,7-18.28,7v12.94c0,9,2.57,20.67,18.28,25,15.72-4.36,18.28-16.07,18.28-25V242.19S542,235.41,541.31,235.16Z" transform="translate(194 -221.18)"/>
        <path class="cls-2" d="M554.14,264.57a17.93,17.93,0,0,1-1.79,3.65,18.57,18.57,0,0,1-9.41,7.21" transform="translate(194 -221.18)"/>
        <polygon class="cls-1" points="735.31 24.23 738.64 29.48 744.66 31.02 740.7 35.81 741.09 42.02 735.31 39.73 729.53 42.02 729.91 35.81 725.96 31.02 731.97 29.48 735.31 24.23"/>
      </g>
      <g>
        <circle class="cls-1" cx="635.96" cy="270.25" r="9.91" transform="translate(189.17 307.67) rotate(-45)"/>
        <line class="cls-1" x1="822.84" y1="41.95" x2="812.69" y2="31.8"/>
        <line class="cls-1" x1="829.96" y1="39.14" x2="829.96" y2="24.64"/>
        <line class="cls-1" x1="836.96" y1="42.07" x2="847.23" y2="31.8"/>
        <circle class="cls-2" cx="614.92" cy="249.21" r="5.33" transform="translate(197.89 286.63) rotate(-45)"/>
        <circle class="cls-2" cx="829.96" cy="19.31" r="5.33"/>
        <circle class="cls-2" cx="657" cy="249.21" r="5.33" transform="translate(210.21 316.38) rotate(-45)"/>
      </g>
      <g>
        <polyline class="cls-3" points="956.84 29.95 956.84 18.98 945.87 18.98"/>
        <polyline class="cls-3" points="955.65 20.17 930.47 45.35 916.08 35.67 916.05 35.64 906.34 45.35"/>
        <line class="cls-2" x1="906.34" y1="53.98" x2="956.84" y2="53.98"/>
      </g>
      <g>
        <polyline class="cls-3" points="1029.34 44.18 1029.34 36.48 1021.64 36.48"/>
        <path class="cls-3" d="M820.55,257.66h-7.7v20.07a2.43,2.43,0,0,0,2.43,2.43h20.07v-7.7" transform="translate(194 -221.18)"/>
        <path class="cls-3" d="M820.55,257.75v3.45a3.55,3.55,0,1,0,7.09,0v-3.55" transform="translate(194 -221.18)"/>
        <path class="cls-3" d="M835.44,272.46h3.45a3.55,3.55,0,1,0,0-7.09h-3.55" transform="translate(194 -221.18)"/>
        <g>
          <polyline class="cls-3" points="1037.05 36.48 1029.34 36.48 1029.34 44.18"/>
          <path class="cls-3" d="M835.34,272.46v7.7h20.07a2.43,2.43,0,0,0,2.43-2.43V260.09a2.43,2.43,0,0,0-2.43-2.43h-5.28" transform="translate(194 -221.18)"/>
          <path class="cls-3" d="M835.44,272.46h3.45a3.55,3.55,0,1,0,0-7.09h-3.55" transform="translate(194 -221.18)"/>
          <path class="cls-3" d="M850.14,257.57v-3.45a3.55,3.55,0,1,0-7.09,0v3.55" transform="translate(194 -221.18)"/>
        </g>
        <g>
          <polyline class="cls-4" points="1021.64 36.48 1029.34 36.48 1029.34 28.77"/>
          <path class="cls-4" d="M835.34,242.86v-7.7H815.27a2.43,2.43,0,0,0-2.43,2.43v20.07h7.7" transform="translate(194 -221.18)"/>
          <path class="cls-4" d="M835.25,242.86H831.8a3.55,3.55,0,0,0,0,7.09h3.55" transform="translate(194 -221.18)"/>
          <path class="cls-4" d="M820.55,257.75v3.45a3.55,3.55,0,1,0,7.09,0v-3.55" transform="translate(194 -221.18)"/>
        </g>
      </g>
      <g>
        <rect class="cls-1" x="621.75" y="13.98" width="34.67" height="45"/>
        <line class="cls-1" x1="627.37" y1="19.08" x2="650.79" y2="19.08"/>
        <line class="cls-1" x1="627.37" y1="27.78" x2="634.45" y2="27.78"/>
        <line class="cls-1" x1="643.71" y1="45.18" x2="650.79" y2="45.18"/>
        <line class="cls-1" x1="627.37" y1="36.48" x2="650.79" y2="36.48"/>
        <line class="cls-1" x1="627.37" y1="53.88" x2="650.79" y2="53.88"/>
        <g>
          <polyline class="cls-2" points="656.81 40.11 667.02 40.11 667.02 27.78 639.72 27.78"/>
          <polyline class="cls-4" points="642.37 24.49 639.08 27.78 642.37 31.06"/>
        </g>
        <g>
          <polyline class="cls-2" points="621.3 32.84 611.14 32.84 611.14 45.18 638.45 45.18"/>
          <polyline class="cls-4" points="635.8 48.46 639.08 45.18 635.8 41.9"/>
        </g>
        <line class="cls-1" x1="621.75" y1="29.11" x2="621.75" y2="36.73"/>
        <line class="cls-1" x1="656.42" y1="44.58" x2="656.42" y2="35.91"/>
      </g>
      <g>
        <line class="cls-1" x1="331.72" y1="33.43" x2="346.1" y2="25.11"/>
        <path class="cls-5" d="M126.56,251.63a0.91,0.91,0,0,1-.45-1.69l20.95-12.08a0.91,0.91,0,1,1,.9,1.57L127,251.51A0.9,0.9,0,0,1,126.56,251.63Z" transform="translate(194 -221.18)"/>
        <path class="cls-5" d="M127.73,255.57a0.91,0.91,0,0,1-.45-1.69l16.8-9.73a0.91,0.91,0,0,1,.91,1.57l-16.8,9.73A0.9,0.9,0,0,1,127.73,255.57Z" transform="translate(194 -221.18)"/>
        <polyline class="cls-3" points="334.32 15.34 322.78 22.02 322.78 22.02 313.37 16.59 295.01 27.19 295.01 48.38 313.37 58.98 331.73 48.38 331.73 33.53"/>
        <path class="cls-5" d="M116.78,264.14a2.22,2.22,0,0,1,0,.25,2.28,2.28,0,1,1-.93-1.82l15-8.69v-0.52a1.81,1.81,0,0,0-.91-1.57l-9.71-5.61a1.81,1.81,0,0,0-1.81,0l-9.71,5.61a1.81,1.81,0,0,0-.91,1.57v11.21a1.81,1.81,0,0,0,.91,1.57l9.71,5.61a1.81,1.81,0,0,0,1.81,0l9.71-5.61a1.81,1.81,0,0,0,.91-1.57v-3.49l-9.42,5.45h0a1.81,1.81,0,1,1-1.81-1.81,1.79,1.79,0,0,1,.9.25l5.89-3.42v-3Z" transform="translate(194 -221.18)"/>
        <path class="cls-5" d="M147.53,240.9a2.26,2.26,0,1,1,2.26-2.26A2.27,2.27,0,0,1,147.53,240.9Zm0-2.72a0.45,0.45,0,1,0,.45.45A0.45,0.45,0,0,0,147.53,238.19Z" transform="translate(194 -221.18)"/>
        <circle class="cls-1" cx="346.08" cy="25.11" r="1.36"/>
        <path class="cls-5" d="M144.54,246.75a1.81,1.81,0,1,1,1.81-1.81A1.81,1.81,0,0,1,144.54,246.75Zm0-1.81h0Zm0,0h0Zm0,0h0Zm0,0h0Zm0,0h0Zm0,0h0Zm0,0h0Zm0,0h0Z" transform="translate(194 -221.18)"/>
        <polygon class="cls-5" points="331.73 28.2 322.12 33.58 322.12 28.36 331.73 23.5 331.73 28.2"/>
        <circle class="cls-1" cx="334.36" cy="15.34" r="1.36"/>
      </g>
      <g>
        <path class="cls-3" d="M1025.26,252.72a17.54,17.54,0,1,0-13,17A17.56,17.56,0,0,0,1025.26,252.72Z" transform="translate(194 -221.18)"/>
        <circle class="cls-1" cx="1201.71" cy="31.54" r="10.53"/>
        <circle class="cls-1" cx="1201.71" cy="31.54" r="3.51"/>
        <g>
          <polyline class="cls-3" points="1197.03 48.56 1195.22 58.98 1188.45 58.98 1190.82 45.31"/>
          <polyline class="cls-3" points="1206.37 48.47 1208.19 58.98 1214.96 58.98 1212.63 45.48"/>
        </g>
        <line class="cls-1" x1="1201.71" y1="31.54" x2="1227.82" y2="17.65"/>
        <polyline class="cls-3" points="1220.61 18.57 1219.34 22.16 1222.92 23.42"/>
        <polyline class="cls-3" points="1225.55 15.95 1224.29 19.53 1227.87 20.8"/>
      </g>
      <g>
        <g>
          <polyline class="cls-1" points="1134.15 43.82 1134.15 49.1 1118 58.98 1101.84 49.1 1101.84 43.89"/>
          <line class="cls-1" x1="1118" y1="53.7" x2="1118" y2="58.98"/>
          <polyline class="cls-1" points="1105.63 41.51 1101.84 43.82 1118 53.7 1134.15 43.82 1130.45 41.56"/>
        </g>
        <g>
          <polyline class="cls-1" points="1134.15 33.84 1134.15 39.12 1118 48.99 1101.84 39.12 1101.84 33.91"/>
          <line class="cls-1" x1="1118" y1="43.71" x2="1118" y2="49"/>
          <polyline class="cls-1" points="1105.6 31.54 1101.84 33.84 1118 43.71 1134.15 33.84 1130.43 31.56"/>
        </g>
        <g>
          <polygon class="cls-2" points="1118 13.98 1101.84 23.86 1118 33.73 1134.15 23.86 1118 13.98"/>
          <polyline class="cls-2" points="1134.15 23.86 1134.15 29.14 1118 39.01 1101.84 29.14 1101.84 23.93"/>
          <line class="cls-2" x1="1118" y1="33.73" x2="1118" y2="39.01"/>
        </g>
      </g>
    </g>
    <g>
      <path class="cls-1" d="M278.87,353.82h0c-0.24.26-1.31,1.44-1.94,2s-3,3.5-8.45.6a29.76,29.76,0,0,1-9.07-7.1,26.49,26.49,0,0,1-4.42-7.37,6.24,6.24,0,0,1,1.22-6.73l2.09-2.09a1.4,1.4,0,0,1,.93-0.44,1.32,1.32,0,0,1,.9.43l0,0c0.37,0.35.73,0.71,1.11,1.1l0.58,0.6,1.68,1.68a1.17,1.17,0,0,1,0,1.9l-2.1,2.06a1.25,1.25,0,0,0-.32,1.39l0,0.06a13.47,13.47,0,0,0,2,3.24h0a21.77,21.77,0,0,0,5.46,5,4.75,4.75,0,0,0,2,.93,1.31,1.31,0,0,0,.93-0.42l2.1-2.1a1.39,1.39,0,0,1,.93-0.46,1.25,1.25,0,0,1,.88.45l3.4,3.4a1.21,1.21,0,0,1,0,1.92h0Zm0,0" transform="translate(194 -221.18)"/>
      <g>
        <line class="cls-1" x1="523.34" y1="111.77" x2="547.76" y2="136.19"/>
        <line class="cls-1" x1="547.76" y1="111.77" x2="523.34" y2="136.19"/>
      </g>
      <polyline class="cls-1" points="667.71 124.88 673.94 131.12 688.23 116.84"/>
      <g>
        <line class="cls-1" x1="607.73" y1="114.01" x2="607.73" y2="133.95"/>
        <line class="cls-1" x1="617.7" y1="123.98" x2="597.76" y2="123.98"/>
      </g>
      <g>
        <circle class="cls-2" cx="310.01" cy="123.98" r="15"/>
        <g>
          <polyline class="cls-3" points="315.6 125.57 310.01 132.36 304.43 125.57"/>
          <line class="cls-1" x1="310.01" y1="115.6" x2="310.01" y2="131.8"/>
        </g>
      </g>
      <g>
        <circle class="cls-1" cx="386.76" cy="116.1" r="6.42"/>
        <path class="cls-3" d="M204.51,359.45c0-7-4.71-15.75-11.75-15.75S181,352.41,181,359.45h23.49Z" transform="translate(194 -221.18)"/>
      </g>
    </g>
  </g>
  <g>
    <path class="cls-6" d="M-68.12,374.14a1.81,1.81,0,0,1-.95-0.27l-124.08-77a1.8,1.8,0,0,1-.85-1.53V276.6a1.8,1.8,0,0,1,1.8-1.8,1.8,1.8,0,0,1,1.8,1.8v17.74l122.28,75.89,85.54-53.4v-18a1.8,1.8,0,0,1,3.6,0v19a1.79,1.79,0,0,1-.85,1.52l-87.34,54.52A1.79,1.79,0,0,1-68.12,374.14Z" transform="translate(194 -221.18)"/>
    <path class="cls-6" d="M-68.12,374.14a1.8,1.8,0,0,1-1.8-1.8v-19a1.8,1.8,0,0,1,1.8-1.8,1.8,1.8,0,0,1,1.8,1.8v19A1.8,1.8,0,0,1-68.12,374.14Z" transform="translate(194 -221.18)"/>
    <path class="cls-6" d="M-68.12,355.14a1.82,1.82,0,0,1-.95-0.27L-193.15,278a1.79,1.79,0,0,1-.85-1.53,1.8,1.8,0,0,1,.86-1.53l87.52-53.51,0.13-.07a1.77,1.77,0,0,1,1.76.06L20.15,297.19a1.8,1.8,0,0,1,0,3.06l-87.34,54.62A1.79,1.79,0,0,1-68.12,355.14Zm-120.65-78.62,120.64,74.7L15.8,298.74l-120.46-73.65Z" transform="translate(194 -221.18)"/>
    <path class="cls-6" d="M-153.52,280.31a1.8,1.8,0,0,1-1.54-.86,1.8,1.8,0,0,1,.6-2.47l55.79-34.11a1.8,1.8,0,0,1,2.47.6,1.8,1.8,0,0,1-.6,2.47L-152.58,280A1.78,1.78,0,0,1-153.52,280.31Z" transform="translate(194 -221.18)"/>
    <path class="cls-6" d="M-133.43,292.57a1.8,1.8,0,0,1-1.54-.86,1.8,1.8,0,0,1,.6-2.47L-105,271.3a1.8,1.8,0,0,1,2.47.6,1.8,1.8,0,0,1-.6,2.47l-29.33,17.93A1.78,1.78,0,0,1-133.43,292.57Z" transform="translate(194 -221.18)"/>
    <path class="cls-5" d="M-37.44,265.66a1.8,1.8,0,0,1-1.8-1.8V235.29L-88.1,265.16a1.8,1.8,0,0,1-2.47-.6,1.8,1.8,0,0,1,.6-2.47l51.6-31.55a1.81,1.81,0,0,1,1.82,0,1.8,1.8,0,0,1,.92,1.57v31.78A1.8,1.8,0,0,1-37.44,265.66Z" transform="translate(194 -221.18)"/>
    <path class="cls-6" d="M-113.33,304.82a1.8,1.8,0,0,1-1.54-.86,1.8,1.8,0,0,1,.6-2.47l55.8-34.12A1.81,1.81,0,0,1-56,268a1.8,1.8,0,0,1-.6,2.47l-55.8,34.12A1.78,1.78,0,0,1-113.33,304.82Z" transform="translate(194 -221.18)"/>
    <path class="cls-5" d="M-120.34,369a1.81,1.81,0,0,1-.9-0.24,1.8,1.8,0,0,1-.9-1.56V331.85a1.8,1.8,0,0,1,.86-1.54l40.11-24.52a1.81,1.81,0,0,1,2.47.6,1.8,1.8,0,0,1-.6,2.47l-39.25,24v31.23l19.16-11.2a1.8,1.8,0,0,1,2.46.65,1.79,1.79,0,0,1-.65,2.46l-21.86,12.78A1.78,1.78,0,0,1-120.34,369Z" transform="translate(194 -221.18)"/>
    <path class="cls-6" d="M-64.67,299.61a1.8,1.8,0,0,1-1.54-.86,1.8,1.8,0,0,1,.6-2.47l27.22-16.64a1.81,1.81,0,0,1,2.47.6,1.8,1.8,0,0,1-.6,2.47l-27.22,16.64A1.78,1.78,0,0,1-64.67,299.61Z" transform="translate(194 -221.18)"/>
    <path class="cls-6" d="M-73.14,329.33a1.8,1.8,0,0,1-1.54-.86,1.8,1.8,0,0,1,.6-2.47l55.79-34.11a1.8,1.8,0,0,1,2.47.6,1.8,1.8,0,0,1-.6,2.47l-55.79,34.11A1.78,1.78,0,0,1-73.14,329.33Z" transform="translate(194 -221.18)"/>
    <g>
      <circle class="cls-5" cx="105.21" cy="42.68" r="6.23"/>
      <path class="cls-5" d="M-88.79,271.89a8,8,0,0,1-8-8,8,8,0,0,1,8-8,8,8,0,0,1,8,8A8,8,0,0,1-88.79,271.89Zm0-12.47a4.44,4.44,0,0,0-4.43,4.43,4.44,4.44,0,0,0,4.43,4.44,4.44,4.44,0,0,0,4.44-4.44A4.44,4.44,0,0,0-88.79,259.43Z" transform="translate(194 -221.18)"/>
    </g>
    <g>
      <circle class="cls-5" cx="113.77" cy="85.74" r="6.23"/>
      <path class="cls-5" d="M-80.23,315a8,8,0,0,1-8-8,8,8,0,0,1,8-8,8,8,0,0,1,8,8A8,8,0,0,1-80.23,315Zm0-12.47a4.44,4.44,0,0,0-4.43,4.43,4.44,4.44,0,0,0,4.43,4.44,4.44,4.44,0,0,0,4.44-4.44A4.44,4.44,0,0,0-80.23,302.49Z" transform="translate(194 -221.18)"/>
    </g>
    <path class="cls-6" d="M-91.44,359.67a1.79,1.79,0,0,1-.95-0.27l-14.27-8.85a1.8,1.8,0,0,1-.58-2.48,1.81,1.81,0,0,1,2.48-.58l14.27,8.85a1.8,1.8,0,0,1,.58,2.48A1.8,1.8,0,0,1-91.44,359.67Z" transform="translate(194 -221.18)"/>
    <path class="cls-6" d="M-27.34,272.06a1.78,1.78,0,0,1-.94-0.26L-49,259.14a1.8,1.8,0,0,1-.6-2.47,1.8,1.8,0,0,1,2.47-.6l20.7,12.66a1.8,1.8,0,0,1,.6,2.47A1.8,1.8,0,0,1-27.34,272.06Z" transform="translate(194 -221.18)"/>
  </g>
</svg>
