<svg id="Layer_1" data-name="Layer 1" xmlns="http://www.w3.org/2000/svg" viewBox="0 0 60 67.74">
  <title>back-to-top</title>
  <path d="M14841.81,2293.5l-25-14.43a5,5,0,0,0-5,0l-25,14.43a5,5,0,0,0-2.5,4.33v28.87a5,5,0,0,0,2.5,4.33l25,14.43a5,5,0,0,0,5,0l25-14.43a5,5,0,0,0,2.5-4.33v-28.87A5,5,0,0,0,14841.81,2293.5Zm-19.25,22.76a1,1,0,0,1-1.41.08l-6.84-6.08-6.84,6.08a1,1,0,1,1-1.33-1.49l7.5-6.67a1,1,0,0,1,1.33,0l7.5,6.67A1,1,0,0,1,14822.56,2316.26Z" transform="translate(-14784.31 -2278.4)" style="fill: #fff"/>
</svg>
